<!-- Generated by IcoMoon.io -->
<svg width="64" height="64" xmlns="http://www.w3.org/2000/svg" xmlns:svg="http://www.w3.org/2000/svg">
 <title/>
 <g>
  <title>Layer 1</title>
  <g id="icomoon-ignore"/>
  <path fill="white" id="svg_1" d="m32.001,0.79c-17.671,0 -32.001,14.326 -32.001,32c0,14.138 9.169,26.133 21.884,30.365c1.599,0.296 2.187,-0.694 2.187,-1.539c0,-0.763 -0.03,-3.284 -0.044,-5.958c-8.903,1.936 -10.781,-3.776 -10.781,-3.776c-1.455,-3.699 -3.553,-4.682 -3.553,-4.682c-2.903,-1.986 0.219,-1.945 0.219,-1.945c3.213,0.226 4.905,3.298 4.905,3.298c2.855,4.892 7.486,3.477 9.313,2.66c0.287,-2.068 1.116,-3.48 2.032,-4.279c-7.108,-0.809 -14.58,-3.553 -14.58,-15.815c0,-3.494 1.25,-6.348 3.297,-8.589c-0.332,-0.806 -1.428,-4.061 0.309,-8.469c0,0 2.688,-0.86 8.802,3.281c2.552,-0.709 5.29,-1.065 8.01,-1.077c2.719,0.012 5.459,0.368 8.016,1.077c6.108,-4.14 8.791,-3.281 8.791,-3.281c1.742,4.408 0.647,7.663 0.315,8.469c2.051,2.241 3.293,5.096 3.293,8.589c0,12.291 -7.486,14.997 -14.612,15.789c1.148,0.993 2.17,2.94 2.17,5.926c0,4.282 -0.037,7.728 -0.037,8.782c0,0.852 0.576,1.85 2.198,1.535c12.708,-4.236 21.865,-16.227 21.865,-30.361c0,-17.674 -14.327,-32 -32,-32l0.002,0z"/>
 </g>
</svg>

