<svg width="25" height="25" xmlns="http://www.w3.org/2000/svg" xmlns:svg="http://www.w3.org/2000/svg">
 <title>github</title>
 <g>
  <title>Layer 1</title>
  <path fill="white" id="svg_1" d="m12.5,0.309c-6.903,0 -12.5,5.596 -12.5,12.5c0,5.523 3.582,10.208 8.548,11.861c0.625,0.116 0.854,-0.271 0.854,-0.601c0,-0.298 -0.012,-1.283 -0.017,-2.327c-3.478,0.756 -4.212,-1.475 -4.212,-1.475c-0.568,-1.445 -1.388,-1.829 -1.388,-1.829c-1.134,-0.776 0.086,-0.76 0.086,-0.76c1.255,0.088 1.916,1.288 1.916,1.288c1.115,1.911 2.924,1.358 3.638,1.039c0.112,-0.808 0.436,-1.359 0.794,-1.671c-2.777,-0.316 -5.695,-1.388 -5.695,-6.178c0,-1.365 0.488,-2.48 1.288,-3.355c-0.13,-0.315 -0.558,-1.586 0.121,-3.308c0,0 1.05,-0.336 3.438,1.281c0.997,-0.277 2.066,-0.416 3.129,-0.421c1.062,0.005 2.132,0.144 3.131,0.421c2.386,-1.617 3.434,-1.281 3.434,-1.281c0.68,1.722 0.253,2.993 0.123,3.308c0.801,0.875 1.286,1.991 1.286,3.355c0,4.801 -2.924,5.858 -5.708,6.168c0.448,0.388 0.848,1.149 0.848,2.315c0,1.673 -0.015,3.019 -0.015,3.43c0,0.333 0.225,0.723 0.859,0.6c4.964,-1.655 8.541,-6.339 8.541,-11.86c0,-6.904 -5.597,-12.5 -12.5,-12.5l0.001,0z"/>
 </g>
</svg>
