<!-- Generated by IcoMoon.io -->
<svg width="128" height="128" xmlns="http://www.w3.org/2000/svg" xmlns:svg="http://www.w3.org/2000/svg">
 <title/>
 <g>
  <title>Layer 1</title>
  <g id="icomoon-ignore"/>
  <path fill="white" id="svg_1" d="m64.001,1.58c-35.342,0 -64.001,28.652 -64.001,64c0,28.277 18.338,52.266 43.767,60.73c3.198,0.592 4.374,-1.389 4.374,-3.079c0,-1.525 -0.06,-6.568 -0.087,-11.915c-17.806,3.872 -21.563,-7.551 -21.563,-7.551c-2.91,-7.397 -7.106,-9.364 -7.106,-9.364c-5.806,-3.972 0.439,-3.891 0.439,-3.891c6.425,0.451 9.809,6.596 9.809,6.596c5.709,9.784 14.972,6.955 18.626,5.32c0.574,-4.136 2.231,-6.96 4.063,-8.558c-14.216,-1.618 -29.16,-7.106 -29.16,-31.629c0,-6.987 2.5,-12.697 6.595,-17.178c-0.665,-1.612 -2.857,-8.121 0.619,-16.938c0,0 5.376,-1.719 17.605,6.561c5.105,-1.419 10.579,-2.13 16.019,-2.154c5.438,0.025 10.917,0.736 16.032,2.154c12.217,-8.28 17.582,-6.561 17.582,-6.561c3.484,8.816 1.294,15.325 0.629,16.938c4.103,4.482 6.587,10.191 6.587,17.178c0,24.582 -14.972,29.994 -29.224,31.578c2.296,1.986 4.341,5.881 4.341,11.852c0,8.564 -0.075,15.456 -0.075,17.564c0,1.704 1.153,3.699 4.397,3.071c25.415,-8.472 43.73,-32.453 43.73,-60.721c0,-35.347 -28.654,-64 -63.999,-64l0.001,-0.003z"/>
 </g>
</svg>
