<!-- Generated by IcoMoon.io -->
<svg width="128" height="128" xmlns="http://www.w3.org/2000/svg" xmlns:svg="http://www.w3.org/2000/svg">
 <title/>
 <g>
  <title>Layer 1</title>
  <g id="icomoon-ignore"/>
  <path d="m64,-1c-35.346,0 -64,28.654 -64,64s28.654,64 64,64s64,-28.654 64,-64s-28.654,-64 -64,-64zm-32,32l64,0c1.142,0 2.251,0.245 3.268,0.708l-35.268,41.146l-35.268,-41.146c1.017,-0.462 2.126,-0.707 3.268,-0.707l0,-0.001zm-8,56l0,-48c0,-0.167 0.007,-0.334 0.017,-0.5l23.458,27.368l-23.2,23.2c-0.18,-0.667 -0.276,-1.361 -0.276,-2.067l0.001,-0.001zm72,8l-64,0c-0.707,0 -1.4,-0.095 -2.067,-0.276l22.765,-22.765l11.303,13.187l11.303,-13.187l22.764,22.765c-0.668,0.18 -1.361,0.275 -2.067,0.275l-0.001,0.001zm8,-8c0,0.707 -0.095,1.4 -0.276,2.067l-23.2,-23.2l23.458,-27.368c0.01,0.166 0.017,0.333 0.017,0.5l0,48l0.001,0.001z" id="svg_1" fill="white"/>
 </g>
</svg>
