<!-- Generated by IcoMoon.io -->
<svg width="64" height="64" xmlns="http://www.w3.org/2000/svg" xmlns:svg="http://www.w3.org/2000/svg">
 <title/>
 <g>
  <title>Layer 1</title>
  <g id="icomoon-ignore"/>
  <path d="m32,0c-17.673,0 -32,14.327 -32,32s14.327,32 32,32s32,-14.327 32,-32s-14.327,-32 -32,-32zm-16,16l32,0c0.571,0 1.125,0.123 1.634,0.354l-17.634,20.573l-17.634,-20.573c0.509,-0.231 1.063,-0.354 1.634,-0.354zm-4,28l0,-24c0,-0.084 0.004,-0.167 0.009,-0.25l11.729,13.684l-11.6,11.6c-0.09,-0.334 -0.138,-0.68 -0.138,-1.034zm36,4l-32,0c-0.353,0 -0.7,-0.048 -1.034,-0.138l11.382,-11.382l5.651,6.594l5.651,-6.593l11.382,11.383c-0.334,0.09 -0.68,0.138 -1.034,0.138l0.002,-0.002zm4,-4c0,0.353 -0.048,0.7 -0.138,1.034l-11.6,-11.6l11.729,-13.684c0.005,0.083 0.009,0.166 0.009,0.25l0,24z" id="svg_1" fill="white"/>
 </g>
</svg>
